<svg id="svg" version="1.1" xmlns="http://www.w3.org/2000/svg" xmlns:xlink="http://www.w3.org/1999/xlink" width="400" height="400" viewBox="0, 0, 400,400"><g id="svgg"><path id="path0" d="M92.091 80.530 C 84.929 83.005,78.288 99.757,78.286 115.357 L 78.286 117.714 74.838 117.714 C 70.244 117.714,69.426 118.374,69.430 122.077 C 69.435 126.485,70.273 127.262,74.786 127.041 C 77.457 126.910,78.286 126.952,78.286 127.220 C 78.288 128.686,79.322 136.049,80.010 139.489 C 82.397 151.424,87.304 160.568,92.714 163.166 C 94.410 163.980,109.117 164.615,111.714 163.986 C 119.278 162.156,125.041 147.980,125.909 129.071 L 126.089 125.143 128.116 125.110 C 129.231 125.091,132.071 124.995,134.429 124.895 C 139.059 124.700,139.131 124.720,139.138 126.209 C 139.142 126.933,139.512 127.538,140.853 129.019 C 142.898 131.275,142.973 131.495,144.746 140.429 C 148.070 157.182,152.077 170.539,155.929 177.712 C 164.820 194.267,164.737 195.689,153.787 214.312 C 143.282 232.180,140.659 238.502,138.433 251.324 C 136.264 263.816,136.828 269.875,141.219 281.247 L 142.969 285.780 142.137 287.390 C 140.357 290.834,133.636 296.754,128.714 299.215 C 116.012 305.566,96.969 305.382,89.871 298.840 C 81.246 290.889,88.163 275.708,102.697 270.687 C 107.175 269.140,106.995 268.012,102.360 268.571 C 90.338 270.022,79.940 281.322,80.669 292.143 C 82.134 313.876,120.697 318.528,147.958 300.260 L 150.915 298.279 154.774 300.317 L 158.633 302.356 158.464 304.250 C 157.751 312.246,157.653 311.949,161.373 313.156 C 165.056 314.351,169.218 316.848,172.704 319.955 C 176.501 323.338,178.320 323.524,177.135 320.408 C 176.717 319.307,176.737 319.314,179.522 321.168 C 184.621 324.565,190.022 324.314,185.876 320.873 C 184.854 320.025,185.541 320.109,187.048 321.017 C 190.234 322.936,192.821 322.502,191.012 320.352 C 190.093 319.260,190.097 319.236,191.214 319.362 C 193.400 319.607,193.445 318.874,191.397 316.392 C 188.884 313.348,187.044 312.416,180.155 310.700 C 170.836 308.379,169.515 306.660,174.258 303.026 C 176.549 301.272,176.821 301.164,180.518 300.540 C 185.125 299.763,188.171 298.900,194.000 296.722 C 200.338 294.353,201.911 294.001,203.265 294.647 C 205.133 295.538,205.179 297.464,203.427 301.429 C 200.564 307.910,201.082 308.224,216.857 309.567 C 223.992 310.174,227.111 310.666,230.307 311.689 C 238.120 314.188,240.546 314.197,238.718 311.719 C 237.754 310.413,237.871 310.401,240.463 311.540 C 245.876 313.919,248.942 313.753,246.571 311.209 C 245.794 310.374,245.847 310.282,246.927 310.591 C 250.022 311.479,249.995 309.392,246.875 306.473 C 243.865 303.657,241.617 303.149,232.143 303.143 C 215.902 303.132,213.894 301.285,221.418 293.283 C 235.614 278.185,238.444 268.351,233.408 251.611 C 231.058 243.799,229.723 235.050,229.509 226.057 C 229.185 212.385,231.410 204.286,238.535 193.205 C 248.657 177.466,247.938 178.703,250.363 172.857 C 253.983 164.130,258.065 149.178,259.575 139.114 C 260.526 132.779,261.201 130.889,263.361 128.503 C 264.147 127.635,264.943 126.461,265.130 125.895 L 265.470 124.866 268.092 125.017 C 269.534 125.099,271.389 125.235,272.214 125.318 L 273.714 125.470 273.714 127.546 C 273.714 139.367,277.112 153.632,281.454 160.034 C 284.715 164.844,285.858 165.246,296.656 165.383 L 305.455 165.494 307.227 164.620 C 315.148 160.712,320.772 147.169,322.073 128.871 L 322.143 127.884 326.293 127.965 C 331.498 128.065,332.029 127.647,332.064 123.419 C 332.094 119.676,331.342 119.143,326.025 119.143 L 322.373 119.143 322.180 115.500 C 321.335 99.503,316.165 85.711,309.675 82.140 L 308.143 81.297 298.668 81.044 L 289.194 80.792 287.558 81.541 C 281.048 84.521,275.600 97.811,274.427 113.571 C 274.334 114.829,274.194 116.275,274.116 116.786 L 273.974 117.714 271.487 117.711 C 267.551 117.706,266.942 117.541,266.731 116.417 C 266.460 114.974,264.866 113.714,263.311 113.714 C 262.521 113.714,261.932 113.548,261.690 113.256 C 261.008 112.434,260.074 112.261,258.889 112.735 C 257.795 113.173,257.786 113.171,256.884 112.268 C 255.314 110.698,252.436 112.040,250.977 115.022 L 250.196 116.618 247.598 116.447 C 223.885 114.891,177.204 114.600,157.081 115.883 L 154.305 116.060 153.600 114.466 C 152.439 111.841,150.699 111.098,149.087 112.538 C 148.183 113.346,148.147 113.353,147.203 112.903 C 146.311 112.478,146.177 112.480,145.383 112.936 C 144.911 113.207,143.939 113.429,143.223 113.429 C 141.813 113.429,139.508 114.594,138.429 115.852 C 137.875 116.496,137.666 116.524,131.829 116.722 L 125.802 116.927 125.604 114.249 C 124.368 97.509,118.604 82.598,112.481 80.302 C 110.966 79.733,93.842 79.925,92.091 80.530 M221.571 123.141 C 241.771 123.726,249.429 124.139,249.429 124.643 C 249.429 124.798,250.007 126.123,250.714 127.587 C 252.182 130.623,252.268 131.442,251.453 134.597 C 250.979 136.436,245.743 148.599,245.154 149.230 C 244.987 149.410,239.333 148.139,238.900 147.825 C 238.845 147.785,239.024 146.801,239.298 145.639 C 240.276 141.487,238.570 138.842,235.185 139.262 C 233.229 139.504,222.679 140.239,216.286 140.578 C 206.198 141.112,202.794 141.949,195.258 145.745 L 190.087 148.349 188.737 147.037 C 181.694 140.192,169.774 144.048,170.347 152.986 C 170.646 157.638,173.336 160.739,178.636 162.542 L 179.987 163.001 179.016 164.429 C 178.482 165.215,177.681 166.456,177.237 167.189 L 176.429 168.521 174.439 167.189 C 167.676 162.662,162.290 155.056,156.043 141.210 C 152.644 133.677,152.342 131.273,154.363 127.826 C 155.106 126.558,155.714 125.194,155.714 124.794 C 155.714 124.098,155.802 124.060,157.786 123.894 C 168.471 123.000,202.745 122.596,221.571 123.141 M242.123 149.850 C 244.872 150.389,244.741 150.262,244.014 151.687 C 243.300 153.086,243.598 153.062,240.671 151.951 C 238.506 151.128,238.286 150.975,238.286 150.284 C 238.286 149.335,238.494 149.119,239.257 149.279 C 239.587 149.349,240.877 149.606,242.123 149.850 M240.711 153.316 C 242.915 154.198,242.843 153.866,241.393 156.493 L 240.214 158.628 238.938 156.296 C 236.957 152.678,237.372 151.979,240.711 153.316 M238.366 157.328 C 239.586 159.910,239.618 159.792,236.778 163.303 C 233.458 167.408,229.813 170.453,225.043 173.107 C 224.123 173.619,223.311 173.978,223.238 173.905 C 222.932 173.599,224.969 170.187,226.784 167.965 C 227.859 166.649,229.802 164.157,231.102 162.429 C 233.531 159.196,236.871 155.194,237.167 155.161 C 237.258 155.151,237.798 156.126,238.366 157.328 " stroke="none" fill="#000000" fill-rule="evenodd"></path></g></svg>